<?xml version="1.0" encoding="UTF-8" standalone="no"?>
<!-- Created with Inkscape (http://www.inkscape.org/) -->

<svg
   xmlns:dc="http://purl.org/dc/elements/1.1/"
   xmlns:cc="http://creativecommons.org/ns#"
   xmlns:rdf="http://www.w3.org/1999/02/22-rdf-syntax-ns#"
   xmlns:svg="http://www.w3.org/2000/svg"
   xmlns="http://www.w3.org/2000/svg"
   xmlns:sodipodi="http://sodipodi.sourceforge.net/DTD/sodipodi-0.dtd"
   xmlns:inkscape="http://www.inkscape.org/namespaces/inkscape"
   width="210mm"
   height="297mm"
   viewBox="0 0 744.09448819 1052.3622047"
   id="svg4524"
   version="1.1"
   inkscape:version="0.91 r13725"
   sodipodi:docname="Solar App Splash and Logo.svg">
  <defs
     id="defs4526" />
  <sodipodi:namedview
     id="base"
     pagecolor="#000000"
     bordercolor="#666666"
     borderopacity="1.0"
     inkscape:pageopacity="0"
     inkscape:pageshadow="2"
     inkscape:zoom="0.35"
     inkscape:cx="126.38069"
     inkscape:cy="520"
     inkscape:document-units="px"
     inkscape:current-layer="layer1"
     showgrid="false"
     inkscape:window-width="1440"
     inkscape:window-height="897"
     inkscape:window-x="-8"
     inkscape:window-y="-8"
     inkscape:window-maximized="1" />
  <metadata
     id="metadata4529">
    <rdf:RDF>
      <cc:Work
         rdf:about="">
        <dc:format>image/svg+xml</dc:format>
        <dc:type
           rdf:resource="http://purl.org/dc/dcmitype/StillImage" />
        <dc:title></dc:title>
      </cc:Work>
    </rdf:RDF>
  </metadata>
  <g
     inkscape:label="Layer 1"
     inkscape:groupmode="layer"
     id="layer1">
    <rect
       style="fill:none;stroke:none"
       id="rect4549"
       width="682.85712"
       height="682.85712"
       x="40"
       y="20.256216"
       inkscape:export-xdpi="3.1600001"
       inkscape:export-ydpi="3.1600001" />
    <g
       id="g4544"
       transform="translate(7.6893591,138.48949)"
       inkscape:export-xdpi="3.1600001"
       inkscape:export-ydpi="3.1600001">
      <path
         inkscape:connector-curvature="0"
         id="path3634"
         style="fill:#800000;fill-rule:evenodd;stroke:none"
         d="m 124.45269,175.29372 21.3483,0 0,-58.84829 c 0,-5.06919 -1.28983,-8.01848 -3.82489,-8.94016 l -4.22518,-1.33636 c -3.33571,-1.10595 -5.02575,-3.54849 -5.02575,-7.327234 0,-4.700422 3.20228,-7.050749 9.56216,-7.050749 l 3.38031,0 58.04079,0 3.51351,0 c 6.53798,0 9.82917,2.350327 9.82917,7.050749 0,3.686614 -1.73457,6.129074 -5.24816,7.327234 -2.84645,0.96774 -4.53649,1.61285 -5.02575,1.7972 -0.48911,0.23049 -0.97845,0.78347 -1.51208,1.56686 -1.02298,1.47464 -1.55669,3.77882 -1.55669,6.91246 l 0,134.60893 c 0,4.97707 1.28983,7.9725 3.91387,9.07845 l 4.18065,1.47472 c 3.51359,1.15194 5.24816,3.64047 5.24816,7.41937 0,4.79256 -3.29119,7.18895 -9.82917,7.18895 l -3.51351,0 -58.04079,0 -3.64709,0 c -6.18208,0 -9.29538,-2.39639 -9.29538,-7.18895 0,-3.7789 1.69004,-6.26743 5.02575,-7.41937 l 4.22518,-1.47472 c 2.53506,-0.82946 3.82489,-3.8249 3.82489,-9.07845 l 0,-62.48875 -21.3483,0 0,-13.27189 z m -10.8077,100.92213 -58.174193,0 -3.380082,0 c -3.157829,0 -5.559539,-0.59912 -7.294108,-1.84342 -1.689964,-1.19808 -2.535061,-2.94929 -2.535061,-5.16118 0,-3.68677 1.734568,-6.12915 5.248156,-7.32724 2.846445,-0.96774 4.536409,-1.56685 5.025749,-1.79719 0.489109,-0.2305 0.978372,-0.73748 1.512085,-1.56694 1.022976,-1.42858 1.556612,-3.73276 1.556612,-6.8664 l 0,-135.20805 c 0,-3.13364 -0.533636,-5.43782 -1.556612,-6.91246 -0.533713,-0.78339 -1.022976,-1.33637 -1.512085,-1.56686 -0.48934,-0.18435 -2.179304,-0.82946 -5.025749,-1.7972 -3.513588,-1.19816 -5.248156,-3.64062 -5.248156,-7.327234 0,-2.258037 0.845097,-4.009245 2.535061,-5.207404 1.734569,-1.244227 4.136279,-1.843345 7.294108,-1.843345 l 3.380082,0 58.174193,0 3.38024,0 c 6.18208,0 9.29538,2.350327 9.29538,7.050749 0,3.778744 -1.64559,6.221284 -4.98122,7.327234 l -4.04731,1.33636 c -2.53521,0.92168 -3.78044,3.87097 -3.78044,8.94016 l 0,135.20805 c 0,5.02306 1.24523,8.01849 3.78044,8.89409 l 4.04731,1.33644 c 3.33563,1.10595 4.98122,3.54834 4.98122,7.32724 0,4.65443 -3.1133,7.0046 -9.29538,7.0046 l -3.38024,0 z m 179.63768,-184.424923 52.52585,0 36.20315,158.756613 c 0.66714,2.81101 1.46763,5.25354 2.31273,7.41937 0.80065,1.70506 2.53522,3.13364 5.20378,4.19359 2.26821,1.01381 3.82482,1.98155 4.71429,2.99536 0.8451,0.96774 1.28983,2.30418 1.28983,4.05539 0,4.65443 -3.38015,7.0046 -10.14039,7.0046 l -65.02352,0 c -2.57966,0 -4.71451,-0.64511 -6.27113,-1.98155 -1.55669,-1.29045 -2.35718,-3.0415 -2.35718,-5.2074 0,-1.79735 0.35576,-3.13379 1.02298,-4.05539 0.71159,-0.8756 2.2682,-2.0277 4.71428,-3.36398 1.73457,-0.92175 2.93543,-1.88949 3.64702,-2.99544 0.66714,-1.05995 1.02298,-2.44238 1.02298,-4.05531 0,-1.52071 -0.13336,-2.9033 -0.40021,-4.05539 l -4.09183,-19.63137 -36.33665,0 3.51359,-16.03698 29.17604,0 -23.97241,-109.77008 3.2468,-13.272033 z m -8.98407,34.424123 6.62674,27.97242 -22.9939,87.18949 c -0.66714,2.53467 -1.0229,4.88485 -1.0229,7.05075 0,5.66816 2.57959,9.72355 7.69424,12.11986 l 4.53657,2.1659 c 2.89089,1.33644 4.31415,3.59448 4.31415,6.77427 0,4.47008 -3.2022,6.72811 -9.56231,6.72811 l -33.13437,0 c -3.20228,0 -5.73742,-0.69125 -7.60549,-2.07368 -1.86784,-1.42866 -2.80192,-3.31799 -2.80192,-5.76053 0,-2.62666 1.91245,-4.74657 5.7375,-6.49763 3.55796,-1.61292 6.182,-3.0415 7.87211,-4.37786 1.69005,-1.29045 3.33564,-3.08765 4.8924,-5.34569 2.44609,-3.68661 4.44751,-8.57146 6.00412,-14.70061 l 29.44306,-111.2448 z m 192.89115,-10.78342 65.60175,138.2034 c 1.55669,3.17979 3.69155,5.48397 6.36011,6.91254 2.35719,1.24431 3.95833,2.44239 4.7589,3.50234 0.84502,1.10595 1.24523,2.58067 1.24523,4.47008 0,2.44231 -0.8451,4.37787 -2.57959,5.80645 -1.51209,1.2443 -4.62539,1.88941 -9.38428,1.88941 l -61.10972,0 c -4.66991,0 -7.69432,-0.32263 -9.11758,-0.96774 -3.02432,-1.33644 -4.53641,-3.64062 -4.53641,-6.86647 0,-1.15209 0.31123,-2.16583 0.88948,-3.04151 0.62261,-0.87545 1.73449,-1.93532 3.38008,-3.17963 2.93542,-2.25819 4.35868,-4.33187 4.26978,-6.22129 -0.089,-1.52071 -0.8451,-3.82489 -2.35734,-6.8664 l -63.8671,-133.64118 c -1.06751,-2.25804 -2.17923,-4.00925 -3.38008,-5.34569 -1.24546,-1.29022 -2.84645,-2.48845 -4.84803,-3.54841 -1.73449,-0.92159 -2.89082,-1.88941 -3.55796,-2.99536 -0.66722,-1.05995 -0.97845,-2.58066 -0.97845,-4.470076 0,-2.672805 0.934,-4.562218 2.80192,-5.668317 1.868,-1.059877 5.15918,-1.61285 9.91807,-1.61285 l 60.70943,0 c 4.44759,0 7.60526,0.599118 9.56224,1.751209 1.95697,1.198082 2.93542,3.087495 2.93542,5.668163 0,2.626811 -1.42318,4.930841 -4.31416,6.912541 -1.3342,0.96767 -2.22383,1.79728 -2.71294,2.48838 -0.48926,0.69133 -0.71174,1.61308 -0.71174,2.76502 0,1.24422 0.35599,2.62681 1.02297,4.05539 z m 29.39853,37.55776 -7.29395,-14.9771 7.2495,-12.90318 c 1.64559,-2.94937 2.44616,-5.53004 2.44616,-7.69594 0,-1.98154 -0.57824,-3.9171 -1.73457,-5.85258 -1.20085,-1.88942 -2.71309,-3.27185 -4.62554,-4.19344 l -4.53641,-2.16606 c -0.84509,-0.46076 -1.64559,-1.29022 -2.26835,-2.58067 -0.66707,-1.24407 -0.97845,-2.53452 -0.97845,-3.778744 0,-2.1659 0.75612,-3.870963 2.22383,-5.161413 1.46771,-1.244226 3.42453,-1.889336 5.87077,-1.889336 l 37.67101,0 c 2.40155,0 4.40306,0.552973 6.00412,1.705064 1.60122,1.106099 2.40171,2.580667 2.40171,4.377867 0,2.166052 -0.80049,4.055462 -2.35718,5.714312 -0.57824,0.50698 -2.40171,1.65907 -5.47057,3.36413 -6.13762,3.50234 -11.25235,8.61753 -15.34418,15.29958 l -19.2579,30.73751 z m -61.50992,57.37357 7.16053,15.39179 -7.9611,13.59451 c -2.93535,5.06912 -4.40306,9.07845 -4.40306,12.02774 0,4.33187 2.31258,7.46551 6.93812,9.44706 2.57959,1.10595 4.31416,2.1659 5.24816,3.22585 0.93399,1.10595 1.42318,2.58067 1.42318,4.47008 0,2.53453 -1.02282,4.60821 -3.1133,6.22114 -0.75597,0.59912 -1.64559,1.01389 -2.57959,1.19824 -0.93392,0.18435 -2.75755,0.27648 -5.42603,0.27648 l -33.62356,0 c -2.75754,0 -4.93693,-0.59912 -6.49354,-1.84342 -1.60106,-1.19808 -2.40163,-2.85715 -2.40163,-5.02298 0,-1.70506 0.48918,-3.13364 1.51216,-4.2858 0.97837,-1.10587 2.71294,-2.16583 5.24816,-3.13364 6.49338,-2.62666 11.51913,-6.91239 15.07724,-12.8572 l 23.39426,-38.70985 z m 195.29286,-122.2125 0,16.35953 c -5.20363,0.82946 -9.07297,3.17963 -11.65264,7.0506 -2.53506,3.9171 -3.82481,9.44706 -3.82481,16.68216 l 0,111.52128 0,5.80652 c 0,2.07369 0.4002,4.23966 1.24522,6.54377 0.8451,2.30418 1.91245,4.23974 3.24681,5.89866 1.42311,1.7972 2.93535,3.04142 4.49204,3.82489 1.60106,0.78347 3.78044,1.29045 6.49338,1.56694 l 0,16.45166 c -16.85627,0 -31.53331,-4.56221 -43.98651,-13.64066 -10.94105,-8.01856 -19.21353,-18.75592 -24.77292,-32.30429 -5.55954,-13.54852 -8.36145,-29.58535 -8.36145,-48.11093 0,-13.59451 1.82347,-26.26743 5.42603,-38.01853 3.60257,-11.75132 8.85057,-21.93571 15.69994,-30.55316 6.98272,-8.75581 15.29958,-15.76041 24.99539,-21.060106 9.69567,-5.299539 19.0355,-7.972343 28.01972,-7.972343 l 2.9798,-0.04622 z m 10.14055,16.49766 0,-16.359532 c 4.26956,0.691331 7.69424,1.474722 10.36281,2.304181 2.62404,0.783468 7.42746,2.488531 14.36558,5.115266 4.44766,1.612851 7.38301,2.44231 8.85072,2.44231 2.53506,0 4.44766,-1.151938 5.73742,-3.502264 l 1.69004,-3.225853 c 1.06735,-2.165823 3.02432,-3.225777 5.87077,-3.225777 2.35718,0 4.13628,0.737323 5.42603,2.1659 1.24539,1.428576 1.86808,3.548408 1.86808,6.313425 l 0,56.313614 c 0,3.54849 -0.80073,6.12915 -2.35734,7.742 -1.55661,1.61293 -3.33555,2.3964 -5.33698,2.3964 -2.09048,0 -3.73607,-0.69126 -4.9813,-2.07384 -1.28983,-1.42858 -2.31273,-3.68662 -3.06885,-6.82026 -1.82355,-7.14296 -3.60257,-12.71898 -5.33713,-16.77437 -3.73592,-8.52532 -8.00563,-15.48393 -12.76452,-20.78339 -3.20228,-3.59463 -6.44893,-6.35949 -9.65129,-8.29505 -3.2022,-1.93548 -6.76024,-3.17979 -10.67404,-3.73276 z m 0.53364,175.20835 0,-16.45166 c 6.80485,-0.55313 13.92084,-3.22586 21.39283,-7.97258 4.00277,-2.62666 7.60534,-6.12892 10.71864,-10.50686 3.1133,-4.33188 5.47056,-9.17058 7.07163,-14.37799 0.84509,-2.90329 1.86807,-4.93084 3.02432,-6.12907 1.20086,-1.24431 2.75754,-1.84327 4.66999,-1.84327 2.0904,0 3.82497,0.82946 5.20371,2.44239 1.37873,1.61292 2.09032,3.64062 2.09032,6.08293 0,4.05546 -1.51224,8.94016 -4.49203,14.70061 -3.02433,5.76038 -6.8493,11.10606 -11.56366,15.94476 -5.73742,5.94481 -11.65264,10.36866 -17.70129,13.27204 -6.0488,2.85715 -12.85365,4.47 -20.41446,4.8387 z" />
      <text
         sodipodi:linespacing="125%"
         id="text4540"
         y="357.09647"
         x="38.787472"
         style="font-style:normal;font-weight:normal;font-size:86.76711273px;line-height:125%;font-family:sans-serif;letter-spacing:0px;word-spacing:0px;fill:#ffff00;fill-opacity:1;stroke:none;stroke-width:1px;stroke-linecap:butt;stroke-linejoin:miter;stroke-opacity:1"
         xml:space="preserve"><tspan
           style="font-style:normal;font-variant:normal;font-weight:normal;font-stretch:normal;font-family:Stencil;-inkscape-font-specification:Stencil"
           y="357.09647"
           x="38.787472"
           id="tspan4542"
           sodipodi:role="line">POWER STATION</tspan></text>
    </g>
  </g>
</svg>
